<svg width="362" height="581" viewBox="0 0 362 581" fill="none" xmlns="http://www.w3.org/2000/svg">
<path d="M227.502 27.3809H134.294C121.731 27.3809 111.546 37.5696 111.546 50.1381V125.61C111.546 138.178 121.731 148.367 134.294 148.367H227.502C240.065 148.367 250.249 138.178 250.249 125.61V50.1381C250.249 37.5696 240.065 27.3809 227.502 27.3809Z" stroke="#FFDB03" stroke-width="5" stroke-miterlimit="10"/>
<path d="M225.031 148.367H136.765V166.144H225.031V148.367Z" stroke="#FFDB03" stroke-width="5" stroke-miterlimit="10"/>
<path d="M165.932 80.4198C165.932 84.8551 162.34 88.4489 157.906 88.4489C153.473 88.4489 149.881 84.8551 149.881 80.4198C149.881 75.9845 153.473 72.3906 157.906 72.3906C162.34 72.3906 165.932 75.9845 165.932 80.4198Z" stroke="#FFDB03" stroke-width="5" stroke-miterlimit="10"/>
<path d="M203.886 88.4489C208.318 88.4489 211.911 84.8542 211.911 80.4198C211.911 75.9854 208.318 72.3906 203.886 72.3906C199.453 72.3906 195.86 75.9854 195.86 80.4198C195.86 84.8542 199.453 88.4489 203.886 88.4489Z" stroke="#FFDB03" stroke-width="5" stroke-miterlimit="10"/>
<path d="M203.886 110.237C203.886 110.237 197.165 119.792 180.786 119.792C164.406 119.792 157.906 110.237 157.906 110.237" stroke="#FFDB03" stroke-width="5" stroke-miterlimit="10" stroke-linecap="round"/>
<path d="M37.8296 348.199C48.0138 348.199 57.2289 352.353 63.8769 359.06L64.0371 359.092L68.5225 333.931C68.5225 333.931 61.6262 330.486 47.5733 328.823C33.5204 327.156 27.8375 328.478 27.8375 328.478L24.2492 350.811C28.4503 349.132 33.0318 348.203 37.8296 348.203V348.199Z" stroke="#FFDB03" stroke-width="5" stroke-miterlimit="10" stroke-linecap="round"/>
<path d="M49.3234 324.908C33.8768 322.621 20.5648 324.371 20.2083 326.771C20.0321 327.957 22.7314 330.053 27.4411 332.168L27.8335 328.478C27.8335 328.478 36.9045 327.408 48.138 328.891C60.8253 330.566 68.5185 333.931 68.5185 333.931L67.9018 338.07C72.8437 337.409 76.8806 334.632 77.0528 333.478C77.4092 331.078 64.77 327.192 49.3234 324.904V324.908Z" stroke="#FFDB03" stroke-width="5" stroke-miterlimit="10" stroke-linecap="round"/>
<path d="M90.2087 180.103C90.2087 180.103 71.8666 183.248 66.9006 195.484C61.9306 207.716 30.2204 267.735 30.2204 267.735L20.2083 326.775C20.5648 324.375 33.8768 322.625 49.3234 324.912C61.5702 326.727 73.6487 330.79 77.0528 333.486L103.837 180.107H90.2087V180.103Z" stroke="#FFDB03" stroke-width="5" stroke-miterlimit="10" stroke-linecap="round"/>
<path d="M74.5098 384.895C74.5098 364.629 58.086 348.199 37.8296 348.199C17.5732 348.199 1.14539 364.629 1.14539 384.895C1.14539 396.013 6.09134 405.965 13.8967 412.696L14.4414 409.367L16.5559 396.45C14.6897 393.016 13.6284 389.082 13.6284 384.895C13.6284 371.525 24.4615 360.683 37.8296 360.683C51.1977 360.683 62.0307 371.521 62.0307 384.895C62.0307 391.882 59.0551 398.16 54.3214 402.58L51.6542 418.886C65.0584 413.425 74.5138 400.268 74.5138 384.895H74.5098Z" stroke="#FFDB03" stroke-width="5" stroke-linecap="round" stroke-linejoin="round"/>
<path d="M81.2699 417.296H280.93" stroke="#FFDB03" stroke-width="5" stroke-miterlimit="10" stroke-linecap="round"/>
<path d="M175.223 535.125H76.4521V579.85H175.223V535.125Z" stroke="#FFDB03" stroke-width="5" stroke-miterlimit="10" stroke-linecap="round"/>
<path d="M256.505 170.636C256.505 170.636 255.36 166.144 251.919 166.144H109.872C106.432 166.144 105.287 170.636 105.287 170.636L76.2478 336.92H285.544L256.505 170.636Z" stroke="#FFDB03" stroke-width="5" stroke-miterlimit="10"/>
<path d="M180.898 336.92H72.9999V348.199H180.898H288.792V336.92H180.898Z" stroke="#FFDB03" stroke-width="5" stroke-miterlimit="10" stroke-linecap="round"/>
<path d="M278.003 348.199H180.998H83.9932L76.352 535.125V579.85H175.123V470.331H180.998H186.873V579.85H285.644V535.125L278.003 348.199Z" stroke="#FFDB03" stroke-width="5" stroke-miterlimit="10" stroke-linecap="round"/>
<path d="M278.055 348.199H181.05H84.0452L82.7316 380.323H181.05H279.368L278.055 348.199Z" stroke="#FFDB03" stroke-width="5" stroke-miterlimit="10" stroke-linecap="round"/>
<path d="M181.05 380.323H171.451V469.758H181.05H190.65V380.323H181.05Z" stroke="#FFDB03" stroke-width="5" stroke-miterlimit="10" stroke-linecap="round"/>
<path d="M285.748 535.125H186.977V579.85H285.748V535.125Z" stroke="#FFDB03" stroke-width="5" stroke-miterlimit="10" stroke-linecap="round"/>
<path d="M212.492 27.3809V8.92662C212.492 4.64761 208.992 1.14587 204.715 1.14587H157.077C152.8 1.14587 149.3 4.64761 149.3 8.92662V27.3809H212.488H212.492Z" stroke="#FFDB03" stroke-width="5" stroke-miterlimit="10" stroke-linecap="round"/>
<path d="M324.174 348.199C313.986 348.199 304.775 352.353 298.127 359.06L297.967 359.092L293.481 333.931C293.481 333.931 300.378 330.486 314.435 328.823C328.488 327.156 334.17 328.478 334.17 328.478L337.759 350.811C333.558 349.132 328.98 348.203 324.178 348.203L324.174 348.199Z" stroke="#FFDB03" stroke-width="5" stroke-miterlimit="10" stroke-linecap="round"/>
<path d="M312.677 324.908C328.123 322.621 341.435 324.371 341.792 326.771C341.968 327.957 339.269 330.053 334.559 332.168L334.166 328.478C334.166 328.478 325.096 327.408 313.862 328.891C301.175 330.566 293.481 333.931 293.481 333.931L294.098 338.07C289.156 337.409 285.115 334.632 284.947 333.478C284.595 331.078 297.23 327.192 312.677 324.904V324.908Z" stroke="#FFDB03" stroke-width="5" stroke-miterlimit="10" stroke-linecap="round"/>
<path d="M271.791 180.103C271.791 180.103 290.133 183.248 295.099 195.484C300.069 207.716 331.78 267.735 331.78 267.735L341.792 326.775C341.435 324.375 328.123 322.625 312.677 324.912C300.434 326.727 288.351 330.79 284.947 333.486L258.163 180.107H271.795L271.791 180.103Z" stroke="#FFDB03" stroke-width="5" stroke-miterlimit="10" stroke-linecap="round"/>
<path d="M287.49 384.895C287.49 364.629 303.914 348.199 324.17 348.199C344.427 348.199 360.851 364.629 360.851 384.895C360.851 396.013 355.905 405.965 348.099 412.696L347.555 409.367L345.44 396.45C347.306 393.016 348.368 389.082 348.368 384.895C348.368 371.525 337.534 360.683 324.166 360.683C310.798 360.683 299.965 371.521 299.965 384.895C299.965 391.882 302.941 398.16 307.675 402.58L310.342 418.886C296.938 413.425 287.486 400.268 287.486 384.895H287.49Z" stroke="#FFDB03" stroke-width="5" stroke-linecap="round" stroke-linejoin="round"/>
</svg>
