<svg width="30" height="30" viewBox="0 0 30 30" fill="none" xmlns="http://www.w3.org/2000/svg">
<path d="M11.5625 0H2.1875C0.98125 0 0 0.98125 0 2.1875V7.8125C0 9.01875 0.98125 10 2.1875 10H11.5625C12.7688 10 13.75 9.01875 13.75 7.8125V2.1875C13.75 0.98125 12.7688 0 11.5625 0Z" fill="#ffffff"/>
<path d="M11.5625 12.5H2.1875C0.98125 12.5 0 13.4813 0 14.6875V27.8125C0 29.0187 0.98125 30 2.1875 30H11.5625C12.7688 30 13.75 29.0187 13.75 27.8125V14.6875C13.75 13.4813 12.7688 12.5 11.5625 12.5Z" fill="#ffffff"/>
<path d="M27.8125 20H18.4375C17.2312 20 16.25 20.9813 16.25 22.1875V27.8125C16.25 29.0188 17.2312 30 18.4375 30H27.8125C29.0187 30 30 29.0188 30 27.8125V22.1875C30 20.9813 29.0187 20 27.8125 20Z" fill="#ffffff"/>
<path d="M27.8125 0H18.4375C17.2312 0 16.25 0.98125 16.25 2.1875V15.3125C16.25 16.5188 17.2312 17.5 18.4375 17.5H27.8125C29.0187 17.5 30 16.5188 30 15.3125V2.1875C30 0.98125 29.0187 0 27.8125 0Z" fill="#ffffff"/>
</svg>
